<?xml version="1.0" encoding="UTF-8" standalone="no"?>
<!-- Created with Inkscape (http://www.inkscape.org/) -->

<svg
   width="26.458332mm"
   height="26.458334mm"
   viewBox="0 0 26.458332 26.458334"
   version="1.1"
   id="svg1"
   xml:space="preserve"
   xmlns:inkscape="http://www.inkscape.org/namespaces/inkscape"
   xmlns:sodipodi="http://sodipodi.sourceforge.net/DTD/sodipodi-0.dtd"
   xmlns="http://www.w3.org/2000/svg"
   xmlns:svg="http://www.w3.org/2000/svg"><sodipodi:namedview
     id="namedview1"
     pagecolor="#505050"
     bordercolor="#eeeeee"
     borderopacity="1"
     inkscape:showpageshadow="0"
     inkscape:pageopacity="0"
     inkscape:pagecheckerboard="0"
     inkscape:deskcolor="#505050"
     inkscape:document-units="mm"
     showguides="true"><inkscape:page
       x="0"
       y="0"
       width="26.458332"
       height="26.458334"
       id="page2"
       margin="0"
       bleed="0" /></sodipodi:namedview><defs
     id="defs1"><style
       type="text/css"
       id="style1">
   
    .fil0 {fill:black}
   
  </style><style
       type="text/css"
       id="style1-4">
   
    .fil0 {fill:black}
   
  </style></defs><g
     inkscape:label="Camada 1"
     inkscape:groupmode="layer"
     id="layer1"
     transform="translate(-129.91041,-145.78541)"><path
       id="path1-5"
       style="fill:#00cc00;fill-opacity:1;stroke-width:0.264583"
       d="m 133.23,145.78541 c -1.83428,0 -3.31958,1.48531 -3.31958,3.31959 v 19.81912 c 0,1.83431 1.4853,3.31963 3.31958,3.31963 h 19.81911 c 1.83433,0 3.31964,-1.48532 3.31964,-3.31963 V 149.105 c 0,-1.83428 -1.48531,-3.31959 -3.31964,-3.31959 z m 0,0.90448 h 19.81911 c 1.34633,0 2.41512,1.06883 2.41512,2.41511 v 19.81912 c 0,1.34633 -1.06879,2.4151 -2.41512,2.4151 H 133.23 c -1.34628,0 -2.4151,-1.06877 -2.4151,-2.4151 V 149.105 c 0,-1.34628 1.06882,-2.41511 2.4151,-2.41511 z m 17.49325,2.30704 c -0.49318,0 -0.95744,0.19277 -1.30387,0.54037 l -6.2798,6.28685 -6.28452,-6.27979 c -0.72054,-0.72172 -1.87892,-0.72409 -2.60306,-0.003 l -0.58501,0.57797 c -0.35233,0.34506 -0.54504,0.81423 -0.54504,1.30622 0,0.49437 0.19276,0.95981 0.54036,1.30623 l 6.28684,6.28217 -6.27979,6.28211 c -0.72413,0.72172 -0.72409,1.88362 -0.003,2.61015 l 0.58266,0.58265 c 0.34506,0.35097 0.81304,0.54268 1.30623,0.54268 0.49076,0 0.96102,-0.19503 1.30622,-0.54037 l 6.2798,-6.28447 6.2798,6.27743 c 0.35597,0.3596 0.83115,0.54037 1.30628,0.54037 0.47031,0 0.94185,-0.17959 1.3015,-0.53801 l 0.58266,-0.58264 c 0.35369,-0.3428 0.54504,-0.81074 0.54504,-1.30388 0.003,-0.49318 -0.19049,-0.95862 -0.538,-1.30622 h -0.003 l -6.28448,-6.2798 6.2798,-6.28453 c 0.72413,-0.72171 0.72408,-1.88129 0.003,-2.60541 l -0.58501,-0.58498 c -0.34278,-0.35142 -0.81068,-0.54273 -1.30386,-0.54273 z" /></g></svg>
